<?xml version="1.0" encoding="utf-8"?>
<!-- Generator: Adobe Illustrator 22.1.0, SVG Export Plug-In . SVG Version: 6.00 Build 0)  -->
<svg version="1.1" id="Layer_1" xmlns="http://www.w3.org/2000/svg" xmlns:xlink="http://www.w3.org/1999/xlink" x="0px" y="0px"
	 viewBox="0 0 16.7 17.4" style="enable-background:new 0 0 16.7 17.4;" xml:space="preserve">
<style type="text/css">
	.st0{fill:#F2F2F2;}
</style>
<g>
	<path class="st0" d="M11.2,9.7L11,9.6l0.2-0.1c1.5-1,2.3-2.6,2.3-4.3c0-2.9-2.3-5.2-5.2-5.2S3.2,2.3,3.2,5.2c0,1.7,0.9,3.4,2.3,4.3
		l0.2,0.1L5.5,9.7C2.2,10.9,0.1,14,0,17.4h1.2c0.1-3.9,3.3-7.1,7.2-7.1s7.1,3.2,7.2,7.1h1.2C16.7,14,14.5,10.9,11.2,9.7z M4.3,5.2
		c0-2.2,1.8-4,4-4s4,1.8,4,4s-1.8,4-4,4S4.3,7.4,4.3,5.2z"/>
</g>
</svg>
