<?xml version="1.0" encoding="UTF-8"?>
<svg width="20px" height="20px" viewBox="0 0 20 20" version="1.1" xmlns="http://www.w3.org/2000/svg" xmlns:xlink="http://www.w3.org/1999/xlink">
    <!-- Generator: Sketch 52.2 (67145) - http://www.bohemiancoding.com/sketch -->
    <title>作者</title>
    <desc>Created with Sketch.</desc>
    <g id="Page-1" stroke="none" stroke-width="1" fill="none" fill-rule="evenodd">
        <path d="M4.0017101,16.3537989 L4,16.3537989 C4.21208738,13.9761466 5.66388218,11.979547 7.66678225,11.0917015 C6.55162354,10.2968135 5.8186227,8.95074568 5.8186227,7.42363776 C5.8186227,4.98004605 7.69544132,3 10.0116392,3 C12.3278371,3 14.2046557,4.98004605 14.2046557,7.42363776 C14.2046557,8.95483233 13.4677264,10.3040166 12.3475352,11.0980712 C14.3187027,11.9782064 15.7530892,13.9333843 15.9917115,16.2672043 C15.9960061,16.2941084 15.9986786,16.3215937 15.9996191,16.3495441 C15.9997465,16.3509624 15.9998735,16.3523806 16,16.3537989 C15.9999159,16.3599171 16,16.3660572 16,16.372218 C16,16.7189324 15.7335855,17 15.4049467,17 C15.0763078,17 14.8098933,16.7189324 14.8098933,16.372218 C14.8098933,16.3660572 14.8099774,16.3599171 14.8101445,16.3537989 L14.8084384,16.3537989 C14.5247333,13.8165771 12.4806014,11.8472755 10,11.8472755 C7.51939864,11.8472755 5.47526673,13.8165771 5.19301649,16.3537989 L5.19130639,16.3537989 C5.19147623,16.3599247 5.19156159,16.3660649 5.19156159,16.372218 C5.19156159,16.7189324 4.92514713,17 4.59650824,17 C4.26786936,17 4.0014549,16.7189324 4.0014549,16.372218 C4.0014549,16.3660649 4.00154026,16.3599247 4.0017101,16.3537989 Z M10.0116392,10.5901765 C11.6687682,10.5901765 13.0130941,9.17191097 13.0130941,7.42363776 C13.0130941,5.67536454 11.6687682,4.257099 10.0116392,4.257099 C8.35451018,4.257099 7.01018429,5.67536454 7.01018429,7.42363776 C7.01018429,9.17191097 8.35451018,10.5901765 10.0116392,10.5901765 Z" id="合并形状" fill="#979797" fill-rule="nonzero"></path>
    </g>
</svg>