<?xml version="1.0" encoding="UTF-8"?>
<svg width="30px" height="30px" viewBox="0 0 30 30" version="1.1" xmlns="http://www.w3.org/2000/svg" xmlns:xlink="http://www.w3.org/1999/xlink">
    <!-- Generator: Sketch 52.2 (67145) - http://www.bohemiancoding.com/sketch -->
    <title>地址</title>
    <desc>Created with Sketch.</desc>
    <defs>
        <linearGradient x1="119.134371%" y1="100%" x2="-19.3420057%" y2="0.909953035%" id="linearGradient-1">
            <stop stop-color="#C3BBFD" offset="0%"></stop>
            <stop stop-color="#FDC0C0" offset="100%"></stop>
        </linearGradient>
    </defs>
    <g id="Page-1" stroke="none" stroke-width="1" fill="none" fill-rule="evenodd">
        <g id="文章内页" transform="translate(-1041.000000, -2577.000000)" fill="url(#linearGradient-1)" fill-rule="nonzero">
            <g id="Bottom" transform="translate(0.000000, 2473.000000)">
                <path d="M1055.96199,112.37442 C1053.87346,112.37442 1052.17989,114.067962 1052.17989,116.15645 C1052.17989,118.24504 1053.87343,119.938616 1055.96199,119.938616 C1058.05054,119.938616 1059.74412,118.24504 1059.74412,116.15645 C1059.74415,114.067962 1058.05054,112.37442 1055.96199,112.37442 Z M1056,104 C1047.71572,104 1041,110.715711 1041,119 C1041,127.284288 1047.71572,134 1056,134 C1064.28429,134 1071,127.284254 1071,119 C1071,110.715745 1064.28429,104 1056,104 Z M1055.96199,128.619154 C1055.96199,128.619154 1048.67336,122.966304 1048.67336,115.89682 C1048.67336,112.110094 1051.93575,109.312346 1055.96199,109.312346 C1059.98818,109.312346 1063.25065,112.110094 1063.25065,115.89682 C1063.25065,122.966304 1055.96199,128.619154 1055.96199,128.619154 Z" id="地址"></path>
            </g>
        </g>
    </g>
</svg>