<?xml version="1.0" encoding="UTF-8"?>
<svg width="30px" height="30px" viewBox="0 0 30 30" version="1.1" xmlns="http://www.w3.org/2000/svg" xmlns:xlink="http://www.w3.org/1999/xlink">
    <!-- Generator: Sketch 52.2 (67145) - http://www.bohemiancoding.com/sketch -->
    <title>电话</title>
    <desc>Created with Sketch.</desc>
    <defs>
        <linearGradient x1="-20.613647%" y1="0%" x2="119.134371%" y2="100%" id="linearGradient-1">
            <stop stop-color="#FAD961" offset="0%"></stop>
            <stop stop-color="#FFC6A6" offset="100%"></stop>
        </linearGradient>
    </defs>
    <g id="Page-1" stroke="none" stroke-width="1" fill="none" fill-rule="evenodd">
        <g id="文章内页" transform="translate(-557.000000, -2577.000000)" fill="url(#linearGradient-1)" fill-rule="nonzero">
            <g id="Bottom" transform="translate(0.000000, 2473.000000)">
                <path d="M571.999986,104 C563.709671,104 557,110.725806 557,119 C557,127.290322 563.725801,134 571.999986,134 C580.2903,134 586.999971,127.274194 586.999971,119 C587.016101,110.725806 580.2903,104 571.999986,104 Z M578.570774,126.83128 C577.308176,128.093878 572.640394,126.888671 568.010871,122.278274 C563.400479,117.667877 562.214403,112.980959 563.476999,111.737492 C564.567424,110.647065 565.887412,108.753168 567.87696,111.220974 C569.866506,113.68878 568.890863,114.37747 567.762178,115.506156 C566.977837,116.290498 568.623039,118.280046 570.325632,119.98264 C572.047355,121.685236 574.017772,123.330439 574.802112,122.546098 C575.930797,121.417411 576.619487,120.441767 579.087291,122.431317 C581.574224,124.420865 579.661198,125.759984 578.570774,126.83128 Z" id="电话"></path>
            </g>
        </g>
    </g>
</svg>