<?xml version="1.0" encoding="UTF-8"?>
<svg width="30px" height="30px" viewBox="0 0 30 30" version="1.1" xmlns="http://www.w3.org/2000/svg" xmlns:xlink="http://www.w3.org/1999/xlink">
    <!-- Generator: Sketch 52.2 (67145) - http://www.bohemiancoding.com/sketch -->
    <title>邮箱</title>
    <desc>Created with Sketch.</desc>
    <defs>
        <linearGradient x1="-20.613647%" y1="0%" x2="119.134371%" y2="100%" id="linearGradient-1">
            <stop stop-color="#8AEEDA" offset="0%"></stop>
            <stop stop-color="#A6C0FF" offset="100%"></stop>
        </linearGradient>
    </defs>
    <g id="Page-1" stroke="none" stroke-width="1" fill="none" fill-rule="evenodd">
        <g id="文章内页" transform="translate(-770.000000, -2577.000000)" fill="url(#linearGradient-1)" fill-rule="nonzero">
            <g id="Bottom" transform="translate(0.000000, 2473.000000)">
                <path d="M785,104 C776.715916,104 770,110.715916 770,119 C770,127.284084 776.715916,134 785,134 C793.284084,134 800,127.284084 800,119 C800,110.715916 793.284084,104 785,104 Z M792.744117,123.517563 C792.744117,124.345638 792.047346,125.02325 791.19544,125.02325 L778.804527,125.02325 C777.952654,125.02325 777.25585,124.345671 777.25585,123.517563 L777.262959,116.078676 L784.814426,120.083306 C784.930544,120.144623 785.069456,120.144623 785.185574,120.083306 L792.744117,116.074904 L792.744117,123.517563 Z M785.003738,118.669304 L777.263827,114.468686 C777.271337,113.64682 777.95766,112.97675 778.80456,112.97675 L791.195508,112.97675 C792.041138,112.97675 792.73417,113.644316 792.744183,114.464514 L785.003805,118.669304 L785.003738,118.669304 Z" id="邮箱"></path>
            </g>
        </g>
    </g>
</svg>