<?xml version="1.0" encoding="UTF-8"?>
<svg width="114px" height="34px" viewBox="0 0 114 34" version="1.1" xmlns="http://www.w3.org/2000/svg" xmlns:xlink="http://www.w3.org/1999/xlink">
    <!-- Generator: Sketch 52.2 (67145) - http://www.bohemiancoding.com/sketch -->
    <title>评论留言</title>
    <desc>Created with Sketch.</desc>
    <defs>
        <path d="M40.224,10.664 L48.896,10.664 L48.896,11.752 L45.104,11.752 L45.104,17.784 L49.376,17.784 L49.376,18.888 L45.104,18.888 L45.104,24.6 L43.984,24.6 L43.984,18.888 L39.776,18.888 L39.776,17.784 L43.984,17.784 L43.984,11.752 L40.224,11.752 L40.224,10.664 Z M47.44,12.552 L48.448,12.824 C48.112,14.376 47.68,15.736 47.168,16.904 L46.192,16.568 C46.672,15.512 47.088,14.168 47.44,12.552 Z M41.456,12.648 C41.936,13.816 42.352,15.16 42.736,16.68 L41.744,16.936 C41.424,15.56 40.992,14.232 40.464,12.968 L41.456,12.648 Z M36.592,10.088 C37.68,10.904 38.592,11.72 39.328,12.552 L38.544,13.352 C37.872,12.568 36.944,11.736 35.792,10.872 L36.592,10.088 Z M34.672,14.824 L38.128,14.824 L38.128,21.912 C38.64,21.464 39.184,20.952 39.776,20.36 L40.096,21.576 C39.152,22.504 38.16,23.32 37.104,24.04 L36.656,23.016 C36.896,22.792 37.024,22.568 37.024,22.312 L37.024,15.928 L34.672,15.928 L34.672,14.824 Z M59.76,9.928 L60.8,9.928 C61.712,11.928 63.28,13.688 65.52,15.192 L64.896,16.168 C62.816,14.776 61.28,13.064 60.288,11.016 C59.088,13.304 57.584,15.064 55.76,16.312 L55.136,15.336 C57.136,13.944 58.672,12.136 59.76,9.928 Z M62.56,24.328 L59.088,24.328 C58,24.328 57.472,23.736 57.472,22.568 L57.472,15.64 L58.624,15.64 L58.624,18.488 C60.192,17.896 61.712,17.064 63.184,15.976 L63.84,16.904 C62.016,18.104 60.288,19.016 58.624,19.624 L58.624,22.328 C58.624,22.936 58.896,23.24 59.44,23.24 L62.352,23.24 C62.864,23.24 63.216,23.112 63.408,22.888 C63.696,22.6 63.888,21.768 63.984,20.392 L65.056,20.744 C64.928,22.44 64.656,23.48 64.24,23.848 C63.888,24.168 63.328,24.328 62.56,24.328 Z M52.512,10.088 C53.6,10.904 54.512,11.72 55.248,12.552 L54.464,13.352 C53.792,12.568 52.864,11.736 51.712,10.872 L52.512,10.088 Z M50.688,14.824 L54.064,14.824 L54.064,21.928 C54.64,21.448 55.248,20.888 55.904,20.248 L56.192,21.4 C55.2,22.392 54.128,23.272 53.008,24.056 L52.56,23.032 C52.816,22.824 52.944,22.584 52.944,22.328 L52.944,15.928 L50.688,15.928 L50.688,14.824 Z M79.616,17.48 L79.616,24.6 L78.48,24.6 L78.48,23.88 L69.584,23.88 L69.584,24.616 L68.448,24.616 L68.448,17.48 L79.616,17.48 Z M69.584,22.808 L73.504,22.808 L73.504,21.208 L69.584,21.208 L69.584,22.808 Z M74.656,22.808 L78.48,22.808 L78.48,21.208 L74.656,21.208 L74.656,22.808 Z M69.584,20.184 L73.504,20.184 L73.504,18.552 L69.584,18.552 L69.584,20.184 Z M74.656,18.552 L74.656,20.184 L78.48,20.184 L78.48,18.552 L74.656,18.552 Z M72.192,12.296 C72.864,13.88 73.392,15.32 73.744,16.632 L72.64,17.032 C72.496,16.52 72.352,16.024 72.192,15.544 C70.976,16.072 69.424,16.568 67.552,17.032 L67.136,15.976 C67.488,15.768 67.664,15.496 67.664,15.16 L67.664,11.192 C69.744,11 71.456,10.552 72.832,9.88 L73.408,10.84 C72.192,11.48 70.656,11.896 68.784,12.12 L68.784,15.592 C70.064,15.224 71.088,14.872 71.84,14.52 C71.616,13.864 71.376,13.224 71.12,12.616 L72.192,12.296 Z M75.728,11.736 L74.016,11.736 L74.016,10.6 L80.4,10.6 C80.368,13.112 80.24,14.728 80.048,15.432 C79.792,16.328 79.216,16.776 78.288,16.808 C77.92,16.808 77.488,16.792 77.008,16.76 L76.672,15.736 C77.264,15.768 77.76,15.8 78.16,15.8 C78.672,15.768 78.976,15.432 79.088,14.776 C79.184,14.296 79.232,13.288 79.248,11.736 L76.832,11.736 C76.672,12.936 76.464,13.896 76.192,14.616 C75.84,15.464 75.328,16.232 74.656,16.92 L73.984,16.056 C74.512,15.464 74.912,14.824 75.2,14.136 C75.424,13.512 75.6,12.712 75.728,11.736 Z M82.832,11.96 L89.696,11.96 C89.44,11.32 89.152,10.712 88.816,10.136 L90.016,9.8 C90.368,10.504 90.64,11.144 90.832,11.72 L90.192,11.96 L97.184,11.96 L97.184,13.048 L82.832,13.048 L82.832,11.96 Z M84.896,14.44 L95.12,14.44 L95.12,15.48 L84.896,15.48 L84.896,14.44 Z M84.896,16.888 L95.12,16.888 L95.12,17.928 L84.896,17.928 L84.896,16.888 Z M95.376,19.464 L95.376,24.632 L94.256,24.632 L94.256,23.864 L85.744,23.864 L85.744,24.632 L84.624,24.632 L84.624,19.464 L95.376,19.464 Z M85.744,22.776 L94.256,22.776 L94.256,20.552 L85.744,20.552 L85.744,22.776 Z" id="path-1"></path>
    </defs>
    <g id="Page-1" stroke="none" stroke-width="1" fill="none" fill-rule="evenodd">
        <g id="评论留言">
            <rect id="path-5" fill="#0087FF" x="0" y="0" width="114" height="34" rx="4"></rect>
            <g>
                <use fill="#000000" xlink:href="#path-1"></use>
                <use fill="#FFFFFF" xlink:href="#path-1"></use>
            </g>
            <path d="M28.3691871,19.9172458 C28.2070014,19.9172458 28.0448788,19.856865 27.921552,19.7362463 L20.506155,12.4821291 L13.0780784,19.7365935 C12.8323922,19.976544 12.4329733,19.9776062 12.1859623,19.7389017 C11.9389513,19.500238 11.9378789,19.112236 12.1835652,18.8722854 L20.0592769,11.1806523 C20.1776832,11.0650177 20.3386493,11 20.5065335,11 C20.5066176,11 20.5067017,11 20.5067859,11 C20.6747752,11.0000613 20.8357834,11.0652219 20.9541476,11.1809995 L28.8168012,18.8726327 C29.0622772,19.1127875 29.0608893,19.5007896 28.8136681,19.739249 C28.6906357,19.8579476 28.5298799,19.9172458 28.3691871,19.9172458 Z M19.5747804,19.3044497 C19.5747804,19.8008253 19.9890126,20.2032173 20.4999939,20.2032173 C21.0109752,20.2032173 21.4252074,19.8008253 21.4252074,19.3044497 C21.4252074,18.808074 21.0109752,18.405682 20.4999939,18.405682 C19.9890126,18.405682 19.5747804,18.808074 19.5747804,19.3044497 Z M19.5747804,23.1012324 C19.5747804,23.597608 19.9890126,24 20.4999939,24 C21.0109752,24 21.4252074,23.597608 21.4252074,23.1012324 C21.4252074,22.6048567 21.0109752,22.2024647 20.4999939,22.2024647 C19.9890126,22.2024647 19.5747804,22.6048567 19.5747804,23.1012324 Z" id="形状" fill="#FFFFFF" fill-rule="nonzero" transform="translate(20.500000, 17.500000) scale(-1, 1) rotate(-180.000000) translate(-20.500000, -17.500000) "></path>
        </g>
    </g>
</svg>