<?xml version="1.0" encoding="UTF-8"?>
<svg width="20px" height="20px" viewBox="0 0 20 20" version="1.1" xmlns="http://www.w3.org/2000/svg" xmlns:xlink="http://www.w3.org/1999/xlink">
    <!-- Generator: Sketch 52.2 (67145) - http://www.bohemiancoding.com/sketch -->
    <title>等级</title>
    <desc>Created with Sketch.</desc>
    <g id="Page-1" stroke="none" stroke-width="1" fill="none" fill-rule="evenodd">
        <path d="M7.15463424,17.9997426 C6.910247,17.9997426 6.67458788,17.9462019 6.45638495,17.8391205 C6.00252293,17.6160343 5.67085452,17.1787854 5.54866091,16.634455 L5.26063307,15.3584019 C5.14716756,14.8408419 4.6147525,14.1537364 4.14343424,13.9306502 L2.99132296,13.3595495 C2.50254847,13.1186164 2.15342383,12.6902909 2.03995831,12.1905778 C1.9264928,11.6908647 2.05741455,11.1465344 2.39781106,10.7182089 L3.20079772,9.69201233 C3.523738,9.27261026 3.71575655,8.42488269 3.60229107,7.90732269 L3.31426324,6.63126962 C3.19206962,6.08693928 3.30553513,5.55153238 3.61974731,5.14105375 C3.93395948,4.73949858 4.42273397,4.50748891 4.97260524,4.50748894 L6.25563829,4.50748894 C6.77932526,4.50748894 7.54739945,4.13270411 7.87033972,3.71330204 L8.67332639,2.6871055 C9.0137229,2.24985654 9.49376929,2 9.99999998,2 C10.5062307,2 10.9862771,2.24985654 11.3266736,2.6871055 L12.1296603,3.71330204 C12.4526005,4.13270411 13.2206748,4.50748894 13.7443617,4.50748894 L15.0273947,4.50748894 C15.5685379,4.50748894 16.0660405,4.73949861 16.3802527,5.14105375 C16.6944649,5.54260891 16.8079304,6.08693925 16.6857368,6.63126962 L16.3977089,7.90732269 C16.2842434,8.42488269 16.476262,9.27261026 16.7992023,9.69201233 L17.6021889,10.7182089 C17.9425855,11.1554578 18.0735072,11.6908647 17.9600417,12.1905778 C17.8465762,12.6902909 17.5061797,13.1186164 17.008677,13.3595495 L15.8565658,13.9306502 C15.3852475,14.1626599 14.8528324,14.8408419 14.7393669,15.3584019 L14.4513391,16.634455 C14.3291455,17.1787854 13.9974771,17.6160343 13.543615,17.8391205 C13.089753,18.0622067 12.5486098,18.0532833 12.0598353,17.8123502 L10.9077241,17.2412495 C10.4364058,17.0092398 9.58105043,17.0092398 9.11846031,17.2412495 L7.966349,17.8123502 C7.6870493,17.9372784 7.4164777,17.9997426 7.15463424,17.9997426 Z M4.96387714,5.82815928 C4.81549915,5.82815928 4.70203367,5.87277651 4.64093686,5.96201098 C4.57111192,6.04232202 4.55365572,6.17617375 4.58856816,6.31894892 L4.87659599,7.59500202 C5.08607078,8.51411719 4.80677105,9.77232336 4.22198728,10.5129696 L3.41900062,11.5391661 C3.33171947,11.6551709 3.28807887,11.7800992 3.31426324,11.8782571 C3.34044757,11.9853385 3.41900062,12.074573 3.54992236,12.1459606 L4.70203367,12.7170613 C5.53993281,13.1275399 6.3167351,14.1358895 6.52620989,15.0550047 L6.8142377,16.3310578 C6.84915017,16.473833 6.91897508,16.5809143 7.01498435,16.6255316 C7.11099363,16.6701488 7.23318725,16.6612254 7.364109,16.5987612 L8.5162203,16.0276606 C9.35411944,15.6171819 10.6109681,15.6171819 11.4401391,16.0276606 L12.5922504,16.5987612 C12.7231721,16.6612254 12.8453658,16.6701488 12.941375,16.6255316 C13.0373843,16.5809143 13.1072092,16.4738329 13.1421217,16.3310578 L13.4301495,15.0550047 C13.6396243,14.1358895 14.4251548,13.1275399 15.2543258,12.7170613 L16.4064371,12.1459606 C16.5373588,12.0834964 16.62464,11.9853385 16.6420962,11.8782571 C16.6682805,11.7711758 16.62464,11.6462475 16.5373588,11.5302427 L15.7343721,10.5040461 C15.1583165,9.7633999 14.8790167,8.50519369 15.0797634,7.58607855 L15.3677913,6.31002548 C15.4027037,6.16725031 15.3852475,6.04232205 15.3154226,5.95308755 C15.2455976,5.87277651 15.1321321,5.81923581 14.9837542,5.81923581 L13.7007211,5.81923581 C12.7755409,5.81923581 11.6408858,5.25705858 11.0648301,4.51641238 L10.2618435,3.49021584 C10.1745623,3.37421101 10.0610968,3.31174687 9.95635941,3.31174687 C9.85162203,3.31174687 9.73815652,3.37421101 9.65087537,3.49021584 L8.84788871,4.51641238 C8.27183307,5.25705858 7.137178,5.81923581 6.21199772,5.81923581 L4.96387714,5.81923581 L4.96387714,5.82815928 Z M9.0049948,12.333353 L7.30301219,12.333353 C7.11099363,12.333353 6.95388755,12.1727309 6.95388755,11.9764151 L6.95388755,8.27318406 C6.95388755,8.07686819 7.11099363,7.91624612 7.30301219,7.91624615 L7.55612755,7.91624615 C7.74814611,7.91624615 7.90525219,8.07686822 7.90525219,8.27318406 L7.90525219,11.3874675 L9.0049948,11.3874675 C9.19701335,11.3874675 9.35411944,11.5480895 9.35411944,11.7444054 L9.35411944,11.9764151 C9.35411944,12.1816544 9.20574145,12.333353 9.0049948,12.333353 Z M11.7368951,12.333353 L11.5536046,12.333353 C11.4052267,12.333353 11.2743049,12.2441185 11.2219362,12.1013433 L9.8952626,8.39811236 C9.86035013,8.29103099 9.86907827,8.16610269 9.93890318,8.06794476 C9.99999998,7.96978682 10.1134655,7.91624612 10.226931,7.91624615 L10.5062307,7.91624615 C10.6546087,7.91624615 10.7855304,8.01440409 10.8378991,8.14825579 L11.6670701,10.5129696 L12.5486098,8.14825579 C12.6009785,8.01440406 12.7319003,7.91624612 12.8715501,7.91624615 L13.1421217,7.91624615 C13.2555872,7.91624615 13.3690527,7.97871029 13.4301495,8.06794476 C13.4912463,8.16610269 13.5087026,8.29103096 13.465062,8.39811236 L12.0598353,12.1013433 C12.0074666,12.2441185 11.8765449,12.333353 11.7368951,12.333353 Z" id="合并形状" fill="#979797" fill-rule="nonzero"></path>
    </g>
</svg>