<?xml version="1.0" encoding="UTF-8"?>
<svg width="100px" height="30px" viewBox="0 0 100 30" version="1.1" xmlns="http://www.w3.org/2000/svg" xmlns:xlink="http://www.w3.org/1999/xlink">
    <!-- Generator: Sketch 52.2 (67145) - http://www.bohemiancoding.com/sketch -->
    <title>logo</title>
    <desc>Created with Sketch.</desc>
    <g id="Page-1" stroke="none" stroke-width="1" fill="none" fill-rule="evenodd">
        <g id="码神岛首页" transform="translate(-360.000000, -65.000000)" fill="#FFFFFF" fill-rule="nonzero">
            <g id="Top">
                <path d="M433.897035,86.8116376 L433.897035,91.5554889 L436.973159,91.5554889 L436.973159,85.7030594 L441.768074,85.7030594 L441.768074,91.5554889 L443.914721,91.5554889 C444.218284,91.5549114 444.505983,91.4231054 444.70035,91.1955609 C444.914854,90.9658467 445.02986,90.663995 445.02124,90.3533293 L445.02124,86.8116376 L449.816156,86.8116376 L449.816156,90.7528495 C449.822251,91.3078039 449.719594,91.8587809 449.513709,92.3761248 C449.317596,92.8624604 449.032661,93.3100254 448.672754,93.6970606 C448.320563,94.0757733 447.894143,94.3817421 447.418699,94.5968806 C446.936762,94.8142142 446.411531,94.9248348 445.880637,94.9208158 L429.102118,94.9208158 L429.102118,86.8116376 L433.897035,86.8116376 Z M459.999821,83.4103179 L459.999821,90.7528495 C460.004923,91.3080523 459.901005,91.8590707 459.693684,92.3761248 C459.497573,92.8624604 459.212637,93.3100254 458.852729,93.6970606 C458.500405,94.0756281 458.074016,94.3815739 457.598674,94.5968806 C457.115533,94.8145064 456.589035,94.9251283 456.056924,94.9208158 L451.177176,94.9208158 L451.177176,91.7822436 L453.936096,91.7822436 C454.238598,91.7815981 454.525137,91.6497039 454.718037,91.4223156 C454.932207,91.1924034 455.047161,90.8906872 455.038927,90.580084 L455.038927,84.2489502 L429.566857,84.2489502 L429.566857,67.890222 L458.974446,67.890222 L458.974446,74.9592081 C458.98027,75.5141402 458.877621,76.0650674 458.671998,76.5824835 C458.476477,77.0691084 458.191478,77.5167726 457.831044,77.9034193 C457.480001,78.281817 457.054851,78.5877738 456.580677,78.8032394 C456.110793,79.0176532 455.598217,79.1282605 455.079499,79.1271746 L449.30347,79.1271746 L449.30347,75.9886023 L452.940229,75.9886023 C453.255453,75.993222 453.556604,75.8614396 453.762742,75.6286743 C453.977245,75.3989601 454.092251,75.0971084 454.083632,74.7864427 L454.083632,71.4859028 L434.468737,71.4859028 L434.468737,80.6568686 L459.999821,80.6568686 L459.999821,83.4103179 Z M362.360574,94.9568086 L362.360574,84.3641271 L360,84.3641271 L363.869129,70.8128374 L360.213927,70.8128374 L360.213927,67.0263947 L375.133493,66.9868026 L375.133493,70.8128374 L368.726747,70.8128374 L366.727636,76.8920216 L374.170821,76.8920216 L374.170821,90.7528495 C374.175891,91.3164099 374.066841,91.8753978 373.849931,92.3977204 C373.646778,92.8900726 373.355813,93.3433936 372.990534,93.7366527 C372.638691,94.1166618 372.212246,94.4238717 371.736479,94.640072 C371.266634,94.8545986 370.754033,94.9652115 370.235302,94.9640072 L362.360574,94.9568086 Z M366.941563,91.170366 L368.479625,91.170366 C368.783188,91.1697884 369.070886,91.0379824 369.265253,90.810438 C369.479757,90.5807238 369.594763,90.278872 369.586144,89.9682063 L369.586144,80.674865 L366.941563,80.674865 L366.941563,91.170366 Z M391.521041,90.7492502 C391.526201,91.3111464 391.423621,91.8690279 391.218593,92.3941212 C391.026081,92.8876011 390.74088,93.3416858 390.377638,93.7330534 C390.02538,94.1116935 389.598976,94.4176507 389.123583,94.6328734 C388.641647,94.850207 388.116415,94.9608276 387.585522,94.9568086 L375.535528,94.9569144 L375.535528,91.6706659 L385.424121,91.6706659 C385.727684,91.6700883 386.015382,91.5382824 386.209749,91.3107379 C386.428542,91.0692009 386.543476,90.7546438 386.53064,90.4325134 L386.53064,82.9136173 L376.195751,82.9136173 L376.195751,73.1595681 L380.275119,73.1595681 L380.275119,79.1271746 L385.331911,79.1271746 L385.331911,71.9646071 C385.34053,71.6539414 385.225524,71.3520897 385.01102,71.1223755 C384.816653,70.894831 384.528955,70.7630251 384.225392,70.7624475 L376.31378,70.7624475 L376.31378,66.9868026 L386.368351,66.9508098 C386.899244,66.9467909 387.424476,67.0574115 387.906412,67.2747451 C388.380654,67.4916913 388.805747,67.7988316 389.156779,68.1781644 C389.520063,68.5708575 389.805241,69.0261269 389.997733,69.5206959 C390.202461,70.0471217 390.305023,70.6061258 390.300182,71.1691662 L390.300182,79.1271746 L391.517353,79.1271746 L391.521041,90.7492502 Z M379.146469,89.5074985 L375.458072,89.5074985 L375.458072,85.7246551 L379.146469,85.7246551 L379.146469,89.5074985 Z M398.86464,85.0443912 L397.064702,87.9238153 L393.545971,85.6418716 L400.738346,74.1781644 L395.157801,74.1781644 L395.157801,70.4061188 L407.890147,70.4061188 L403.807092,78.324535 L406.518064,78.324535 L408.731102,88.2297541 L404.736568,88.2297541 L403.441941,82.3773246 L403.441941,95 L398.86464,95 L398.86464,85.0443912 Z M419.508598,65.1259748 L419.508598,69.2219556 L425.948539,69.2219556 L425.948539,86.1385723 C425.952895,86.7018979 425.849059,87.2610333 425.642402,87.7870426 C425.448938,88.2808748 425.162457,88.7350056 424.79776,89.1259748 C424.444087,89.5046402 424.016476,89.8105633 423.540016,90.0257948 C423.055515,90.2432605 422.527856,90.3538617 421.994578,90.34973 L419.512287,90.34973 L419.512287,94.9208158 L415.429231,94.9208158 L415.429231,90.3605278 L409.022485,90.3605278 L409.022485,69.2219556 L415.425542,69.2219556 L415.425542,65.1259748 L419.508598,65.1259748 Z M412.131804,73.0227954 L412.131804,78.0617876 L415.432919,78.0617876 L415.432919,73.0227954 L412.131804,73.0227954 Z M415.432919,86.6640672 L415.432919,81.8014398 L412.131804,81.8014398 L412.131804,86.64967 L415.432919,86.6640672 Z M419.512287,73.0227954 L419.512287,78.0617876 L422.831844,78.0617876 L422.831844,73.0227954 L419.512287,73.0227954 Z M421.703194,86.6640672 C422.018418,86.6686868 422.31957,86.5369046 422.525707,86.3041392 C422.744499,86.0626022 422.859434,85.7480452 422.846598,85.4259148 L422.846598,81.8014398 L419.52704,81.8014398 L419.52704,86.64967 L421.703194,86.6640672 Z M380.714038,85.7246551 L384.402435,85.7246551 L384.402435,89.5110978 L380.714038,89.5110978 L380.714038,85.7246551 Z M399.425276,65.1115777 L404.061591,65.1115777 L404.061591,69.6358728 L399.425276,69.6358728 L399.425276,65.1115777 Z M440.842287,73.4511098 L445.478601,73.4511098 L445.478601,77.9754049 L440.842287,77.9754049 L440.842287,73.4511098 Z M446.658444,68.8794241 L439.709505,68.8794241 L442.553703,65 L449.502643,65 L446.658444,68.8794241 Z" id="logo"></path>
            </g>
        </g>
    </g>
</svg>