<?xml version="1.0" encoding="UTF-8"?>
<svg width="19px" height="20px" viewBox="0 0 19 20" version="1.1" xmlns="http://www.w3.org/2000/svg" xmlns:xlink="http://www.w3.org/1999/xlink">
    <!-- Generator: Sketch 52.2 (67145) - http://www.bohemiancoding.com/sketch -->
    <title>搜索</title>
    <desc>Created with Sketch.</desc>
    <g id="Page-1" stroke="none" stroke-width="1" fill="none" fill-rule="evenodd">
        <g id="码神岛首页" transform="translate(-1530.000000, -70.000000)" fill="#222555" fill-rule="nonzero">
            <g id="Top">
                <path d="M1548.66415,88.06 C1549.11195,88.5040909 1549.11195,89.2231818 1548.66415,89.6668182 C1548.44048,89.8886364 1548.14714,90 1547.8538,90 C1547.56092,90 1547.26758,89.8886364 1547.04391,89.6668182 L1544.09585,86.7431818 C1542.67087,87.6490909 1540.98188,88.1818182 1539.16684,88.1818182 C1537.34264,88.1818182 1535.5794,87.6504546 1534.06779,86.645 C1533.75291,86.435 1533.66857,86.0113636 1533.87987,85.6986364 C1534.09208,85.3859091 1534.51925,85.3036364 1534.83413,85.5122727 C1536.11841,86.3663636 1537.61627,86.8181818 1539.16684,86.8181818 C1543.46334,86.8181818 1546.95866,83.3518182 1546.95866,79.0909091 C1546.95866,74.83 1543.46334,71.3636364 1539.16684,71.3636364 C1534.87034,71.3636364 1531.37503,74.83 1531.37503,79.0909091 C1531.37503,80.6231818 1531.82833,82.105 1532.68543,83.3772727 C1532.89626,83.6904546 1532.81147,84.1136364 1532.49567,84.3227273 C1532.17988,84.5309091 1531.75316,84.4486364 1531.54232,84.1345454 C1530.53305,82.6377273 1530,80.8931818 1530,79.0909091 C1530,74.0777273 1534.11225,70 1539.16684,70 C1544.2219,70 1548.33369,74.0777273 1548.33369,79.0909091 C1548.33369,81.4831818 1547.38996,83.6559091 1545.86139,85.2804546 L1548.66415,88.06 Z M1534.41704,77.7479546 C1534.33729,78.0556818 1534.05816,78.2597727 1533.75199,78.2597727 C1533.69515,78.2597727 1533.6374,78.2529546 1533.58011,78.2379546 C1533.21206,78.1443182 1532.99114,77.7725 1533.08602,77.4079546 C1533.7387,74.8970454 1535.83653,73.0661364 1538.4312,72.7438636 C1538.80521,72.6965909 1539.15172,72.9620454 1539.19893,73.3356818 C1539.24614,73.7093182 1538.97892,74.0502273 1538.60217,74.0970454 C1536.57079,74.3493182 1534.92809,75.7825 1534.41704,77.7479546 Z" id="搜索"></path>
            </g>
        </g>
    </g>
</svg>