<?xml version="1.0" encoding="UTF-8"?>
<svg width="20px" height="20px" viewBox="0 0 20 20" version="1.1" xmlns="http://www.w3.org/2000/svg" xmlns:xlink="http://www.w3.org/1999/xlink">
    <!-- Generator: Sketch 52.2 (67145) - http://www.bohemiancoding.com/sketch -->
    <title>时间</title>
    <desc>Created with Sketch.</desc>
    <g id="Page-1" stroke="none" stroke-width="1" fill="none" fill-rule="evenodd">
        <path d="M16,10 C16,6.6862915 13.3137085,4 10,4 C6.6862915,4 4,6.6862915 4,10 C4,13.3137085 6.6862915,16 10,16 C13.3137085,16 16,13.3137085 16,10 Z M17,10 C17,13.8659932 13.8659932,17 10,17 C6.13400675,17 3,13.8659932 3,10 C3,6.13400675 6.13400675,3 10,3 C13.8659932,3 17,6.13400675 17,10 Z M10.5,9.795 L12.355,11.645 C12.5510611,11.8410611 12.5510611,12.1589389 12.355,12.355 C12.1589389,12.5510611 11.8410611,12.5510611 11.645,12.355 L9.645,10.355 C9.55140674,10.2606406 9.49923162,10.1329015 9.5,10 L9.5,5.5 C9.5,5.22385763 9.72385763,5 10,5 C10.2761424,5 10.5,5.22385763 10.5,5.5 L10.5,9.795 Z" id="形状" fill="#979797" fill-rule="nonzero"></path>
    </g>
</svg>