<?xml version="1.0" encoding="UTF-8" standalone="no"?>
<!-- Created with Inkscape (http://www.inkscape.org/) -->

<svg
   xmlns:dc="http://purl.org/dc/elements/1.1/"
   xmlns:cc="http://creativecommons.org/ns#"
   xmlns:rdf="http://www.w3.org/1999/02/22-rdf-syntax-ns#"
   xmlns:svg="http://www.w3.org/2000/svg"
   xmlns="http://www.w3.org/2000/svg"
   xmlns:sodipodi="http://sodipodi.sourceforge.net/DTD/sodipodi-0.dtd"
   xmlns:inkscape="http://www.inkscape.org/namespaces/inkscape"
   width="80"
   height="30"
   viewBox="0 0 21.166667 7.9374997"
   version="1.1"
   id="svg8"
   sodipodi:docname="mtelogo-mobile.svg"
   inkscape:version="0.92.2 2405546, 2018-03-11">
  <defs
     id="defs2" />
  <sodipodi:namedview
     id="base"
     pagecolor="#ffffff"
     bordercolor="#666666"
     borderopacity="1"
     inkscape:pageopacity="0.0"
     inkscape:pageshadow="2"
     inkscape:zoom="1.01"
     inkscape:cx="397.81967"
     inkscape:cy="-312.77228"
     inkscape:document-units="mm"
     inkscape:current-layer="layer1"
     showgrid="false"
     units="px"
     inkscape:window-width="1920"
     inkscape:window-height="1030"
     inkscape:window-x="1600"
     inkscape:window-y="25"
     inkscape:window-maximized="1" />
  <metadata
     id="metadata5">
    <rdf:RDF>
      <cc:Work
         rdf:about="">
        <dc:format>image/svg+xml</dc:format>
        <dc:type
           rdf:resource="http://purl.org/dc/dcmitype/StillImage" />
        <dc:title></dc:title>
      </cc:Work>
    </rdf:RDF>
  </metadata>
  <g
     inkscape:label="Layer 1"
     inkscape:groupmode="layer"
     id="layer1"
     transform="translate(0,-289.0625)">
    <g
       aria-label="mte"
       style="font-style:normal;font-weight:normal;font-size:10.58333302px;line-height:1.25;font-family:sans-serif;letter-spacing:0px;word-spacing:0px;fill:#f07974;fill-opacity:1;stroke:none;stroke-width:0.26458332"
       id="text4619">
      <path
         d="M 3.4370678,296.74326 H 1.9871512 v -5.00592 q 0.052917,-0.0106 0.127,-0.0212 0.0635,-0.0106 0.1481667,-0.0106 0.084667,-0.0106 0.2010833,-0.0106 0.3386667,0 0.5820833,0.127 0.254,0.11641 0.3175,0.42333 0.1799167,-0.24342 0.5503333,-0.4445 0.381,-0.21167 1.0054167,-0.21167 0.5926666,0 0.8784166,0.21167 0.2963333,0.21167 0.4339167,0.49742 0.22225,-0.27517 0.6138333,-0.48684 0.3915833,-0.22225 0.9948333,-0.22225 0.381,0 0.6455833,0.0847 0.2751667,0.0847 0.4550833,0.23283 0.1905,0.14817 0.28575,0.34925 0.1058333,0.1905 0.1375833,0.41275 0.042333,0.24342 0.052917,0.52917 0.021167,0.28575 0.021167,0.56092 v 2.9845 H 7.9984844 v -2.921 q 0,-0.23284 -0.010583,-0.42334 -0.010583,-0.1905 -0.084667,-0.32808 -0.0635,-0.13758 -0.2116667,-0.21167 -0.1375833,-0.0741 -0.3915833,-0.0741 -0.2751667,0 -0.5291667,0.127 -0.2434166,0.127 -0.3386666,0.27517 0.03175,0.30691 0.03175,0.62441 v 2.93159 H 5.0245678 v -2.921 q 0,-0.23284 -0.010583,-0.43392 -0.010583,-0.20108 -0.084667,-0.33867 -0.074083,-0.14816 -0.22225,-0.22225 -0.1481667,-0.0847 -0.4233333,-0.0847 -0.3704167,0 -0.6138333,0.16933 -0.2328334,0.15875 -0.2328334,0.40217 z"
         style="font-style:normal;font-variant:normal;font-weight:800;font-stretch:normal;font-family:Foco;-inkscape-font-specification:'Foco Ultra-Bold';fill:#f07974;fill-opacity:1;stroke-width:0.26458332"
         id="path4653"
         inkscape:connector-curvature="0" />
      <path
         d="m 10.866899,295.98126 q -0.07408,-0.21167 -0.09525,-0.4445 -0.02117,-0.23284 -0.02117,-0.46567 v -4.91067 q 0.07408,-0.0106 0.15875,-0.0212 0.07408,-0.0106 0.15875,-0.0106 0.08467,-0.0106 0.169333,-0.0106 0.169334,0 0.338667,0.0317 0.169333,0.0318 0.306917,0.127 0.137583,0.0953 0.22225,0.26458 0.08467,0.15875 0.08467,0.42334 v 0.74083 h 1.481667 v 1.0795 h -1.481667 v 2.26483 q 0,0.74084 0.60325,0.74084 0.148167,0 0.275167,-0.0423 0.137583,-0.0529 0.243417,-0.10583 0.105833,-0.0635 0.179916,-0.127 0.08467,-0.0635 0.116417,-0.0952 0.15875,0.23283 0.243417,0.40217 0.08467,0.16933 0.08467,0.3175 0,0.13758 -0.116416,0.27516 -0.105834,0.127 -0.306917,0.24342 -0.201083,0.10583 -0.486833,0.16933 -0.28575,0.0741 -0.624417,0.0741 -0.656167,0 -1.026583,-0.254 -0.359834,-0.254 -0.508,-0.66675 z"
         style="fill:#fde68e;fill-opacity:1"
         id="path4655"
         inkscape:connector-curvature="0" />
      <path
         d="m 17.385735,295.84367 q 0.264583,0 0.465667,-0.0529 0.201083,-0.0635 0.359833,-0.14817 0.15875,-0.0847 0.275167,-0.17992 0.116416,-0.10583 0.211666,-0.1905 0.127,0.15875 0.264584,0.41275 0.137583,0.24342 0.137583,0.40217 0,0.23283 -0.264583,0.42333 -0.22225,0.16934 -0.635,0.28575 -0.402167,0.127 -0.9525,0.127 -0.497417,0 -0.98425,-0.127 -0.47625,-0.127 -0.85725,-0.4445 -0.370417,-0.3175 -0.60325,-0.84666 -0.232833,-0.53975 -0.232833,-1.35467 0,-0.66675 0.201083,-1.143 0.211667,-0.48683 0.550333,-0.80433 0.34925,-0.3175 0.783167,-0.46567 0.433917,-0.14817 0.889,-0.14817 0.592666,0 1.005416,0.1905 0.41275,0.17992 0.66675,0.49742 0.264584,0.30692 0.381,0.70908 0.116417,0.40217 0.116417,0.84667 0,0.0635 0,0.14817 0,0.0847 -0.01058,0.17991 0,0.0953 -0.01058,0.1905 0,0.0847 -0.01058,0.13759 h -3.1115 q 0.04233,0.58208 0.359834,0.97366 0.317499,0.381 1.005416,0.381 z m 0.47625,-2.14841 q 0,-0.508 -0.201083,-0.8255 -0.1905,-0.3175 -0.6985,-0.3175 -0.433917,0 -0.6985,0.30691 -0.254,0.29634 -0.254,0.83609 z"
         style="fill:#a8d379;fill-opacity:1"
         id="path4657"
         inkscape:connector-curvature="0" />
    </g>
  </g>
</svg>
