<?xml version="1.0" encoding="iso-8859-1"?>
<!-- Generator: Adobe Illustrator 17.0.1, SVG Export Plug-In . SVG Version: 6.00 Build 0)  -->
<!DOCTYPE svg PUBLIC "-//W3C//DTD SVG 1.1//EN" "http://www.w3.org/Graphics/SVG/1.1/DTD/svg11.dtd">
<svg version="1.1" id="Layer_1" xmlns="http://www.w3.org/2000/svg" xmlns:xlink="http://www.w3.org/1999/xlink" x="0px" y="0px"
	 viewBox="0 0 16 16" style="enable-background:new 0 0 16 16;" xml:space="preserve">
<linearGradient id="SVGID_1_" gradientUnits="userSpaceOnUse" x1="237.8865" y1="-201.5552" x2="237.8865" y2="-190.0552" gradientTransform="matrix(1.3889 0 0 1.3889 -322.3867 279.9401)">
	<stop  offset="0" style="stop-color:#A2DCEF"/>
	<stop  offset="1" style="stop-color:#7BCAE1"/>
</linearGradient>
<path style="fill:url(#SVGID_1_);" d="M16,13.976c0,1.102-0.894,1.996-1.996,1.996H2.024c-1.103,0-1.997-0.894-1.997-1.996V1.997
	C0.028,0.894,0.922,0,2.024,0h11.979C15.106,0,16,0.894,16,1.997V13.976z"/>
<path style="fill:#FFFFFF;" d="M16,14c0,1.104-0.896,2-2,2H2c-1.105,0-2-0.896-2-2V2c0-1.104,0.896-2,2-2h12c1.104,0,2,0.896,2,2V14
	z"/>
<linearGradient id="SVGID_2_" gradientUnits="userSpaceOnUse" x1="8" y1="16" x2="8" y2="7.432042e-006">
	<stop  offset="0" style="stop-color:#DB0B00"/>
	<stop  offset="1" style="stop-color:#E85700"/>
</linearGradient>
<path style="fill:url(#SVGID_2_);" d="M14,1c0.551,0,1,0.449,1,1v12c0,0.551-0.449,1-1,1H2c-0.551,0-1-0.449-1-1V2
	c0-0.551,0.449-1,1-1H14 M14,0H2C0.896,0,0,0.896,0,2v12c0,1.104,0.896,2,2,2h12c1.104,0,2-0.896,2-2V2C16,0.896,15.104,0,14,0L14,0
	z"/>
<g>
	<defs>
		<path id="SVGID_3_" d="M14,13.75c0,0.413-0.337,0.75-0.75,0.75h-11c-0.413,0-0.75-0.337-0.75-0.75v-11C1.5,2.338,1.838,2,2.25,2
			h11C13.663,2,14,2.338,14,2.75V13.75z"/>
	</defs>
	<clipPath id="SVGID_4_">
		<use xlink:href="#SVGID_3_"  style="overflow:visible;"/>
	</clipPath>
	<path style="clip-path:url(#SVGID_4_);fill:#FFFFFF;" d="M0.113,12.35c0,1.745,2.273,3.161,5.076,3.161s5.076-1.416,5.076-3.161
		c0-1.746-2.273-3.161-5.076-3.161S0.113,10.605,0.113,12.35"/>
	<path style="clip-path:url(#SVGID_4_);fill:#E6162D;" d="M5.308,15.254c-2.481,0.245-4.623-0.877-4.785-2.506
		C0.362,11.119,2.244,9.6,4.725,9.354c2.482-0.246,4.624,0.876,4.785,2.505C9.67,13.489,7.789,15.008,5.308,15.254 M10.271,9.846
		c-0.211-0.063-0.356-0.106-0.245-0.384C10.265,8.86,10.29,8.34,10.03,7.97C9.544,7.275,8.212,7.312,6.686,7.951
		c0-0.001-0.479,0.21-0.357-0.17c0.235-0.755,0.199-1.387-0.166-1.752C5.336,5.201,3.134,6.06,1.246,7.948
		c-1.414,1.414-2.235,2.913-2.235,4.209c0,2.479,3.179,3.986,6.288,3.986c4.076,0,6.788-2.368,6.788-4.249
		C12.088,10.757,11.131,10.112,10.271,9.846"/>
	<path style="clip-path:url(#SVGID_4_);fill:#FF9933;" d="M12.978,5.31c-0.984-1.091-2.436-1.508-3.777-1.223h0
		c-0.31,0.066-0.508,0.372-0.441,0.681C8.825,5.078,9.13,5.276,9.44,5.21c0.954-0.202,1.985,0.094,2.685,0.869
		c0.699,0.775,0.889,1.833,0.589,2.76l0,0c-0.098,0.302,0.067,0.625,0.37,0.723c0.301,0.097,0.625-0.068,0.722-0.369
		c0,0,0-0.002,0-0.002C14.228,7.886,13.963,6.4,12.978,5.31"/>
	<path style="clip-path:url(#SVGID_4_);fill:#FF9933;" d="M11.466,6.674c-0.479-0.531-1.187-0.733-1.84-0.595
		c-0.267,0.057-0.437,0.32-0.38,0.587c0.057,0.266,0.32,0.437,0.586,0.379v0c0.319-0.068,0.665,0.031,0.9,0.29
		c0.234,0.26,0.298,0.614,0.197,0.925h0c-0.084,0.259,0.058,0.538,0.318,0.622c0.26,0.083,0.538-0.059,0.622-0.318
		C12.074,7.929,11.946,7.205,11.466,6.674"/>
	<path style="clip-path:url(#SVGID_4_);" d="M5.445,12.303c-0.087,0.148-0.279,0.22-0.429,0.158
		c-0.148-0.061-0.194-0.227-0.11-0.373c0.087-0.145,0.271-0.216,0.418-0.157C5.474,11.986,5.527,12.154,5.445,12.303 M4.654,13.318
		c-0.24,0.383-0.754,0.551-1.141,0.374c-0.382-0.174-0.494-0.619-0.254-0.992c0.237-0.372,0.734-0.537,1.118-0.376
		C4.766,12.489,4.89,12.931,4.654,13.318 M5.556,10.608c-1.181-0.307-2.516,0.281-3.028,1.322c-0.522,1.061-0.017,2.239,1.176,2.624
		c1.236,0.398,2.692-0.212,3.199-1.358C7.401,12.077,6.778,10.924,5.556,10.608"/>
</g>
</svg>
