<?xml version="1.0" encoding="UTF-8"?>
<svg width="165px" height="42px" viewBox="0 0 165 42" version="1.1" xmlns="http://www.w3.org/2000/svg" xmlns:xlink="http://www.w3.org/1999/xlink">
    <!-- Generator: Sketch 46.2 (44496) - http://www.bohemiancoding.com/sketch -->
    <title>logo</title>
    <desc>Created with Sketch.</desc>
    <defs></defs>
    <g id="UI" stroke="none" stroke-width="1" fill="none" fill-rule="evenodd">
        <g id="logo" fill="#FFFFFF">
            <path d="M61.984,33 C63.016,33 63.022,32.077 63.021,31.984 C63.02,31.637 63.015,29.365 63.015,29.016 C63.015,28.016 62,28 62,28 C62,28 42.255,27.984 40.984,27.984 C38.969,27.984 39,26.034 39,26.034 C38.974,25.907 39.001,24 39,24 L59.008,24 C64.562,24 64,20 64,20 L64,16.036 C64,16.036 64.542,9 57.016,9 L40.16,9 C32.5,9 33.019,15.943 33.019,15.943 C33.019,19.702 33.021,21.046 33.021,25.992 C33.021,33 40.031,32.968 40.031,32.968 M57.017,19.014 C56.378,19.014 39,19.016 39,19.016 C39,19.016 39.004,16.426 39.004,16.031 C39.004,15.016 39.969,14.019 41.016,14.016 C41.987,14.012 55.041,14.016 56.047,14.016 C56.953,14.016 58.005,15.031 58,16.016 C57.996,16.795 57.984,17.272 57.984,18.016 C57.984,18.016 57.984,19.014 57.017,19.014 Z M29.99,0 C29.99,0 31,0 31,1 L31,28.016 C31,28.016 30.995,32.986 26.006,32.986 C21.977,32.986 21.711,32.965 12.194,32.974 C2.678,32.984 0.996,24.881 0.986,21.014 C0.977,17.147 2.634,8.997 12.045,9 C16.427,9.002 20.787,8.999 24.997,9 C24.997,9 25.001,1.113 25.001,1.031 C25.001,0 26.003,0 26.003,0 C26.431,0.001 29.561,0.001 29.99,0 Z M24.984,27.025 C24.984,26.137 24.98,14.034 24.98,14.034 C24.98,14.034 17.035,14.023 14.254,14.023 C11.471,14.023 7.013,14.881 7.016,21.078 C7.018,27.274 11.029,27.993 14.301,28.002 C17.571,28.012 22.894,28 23.984,28 C25,28 24.984,27.025 24.984,27.025 Z M136,6 L132,6 C131.448,6 131,5.552 131,5 L131,1 C131,0.448 131.448,0 132,0 L136,0 C136.552,0 137,0.448 137,1 L137,5 C137,5.552 136.552,6 136,6 Z M136,33 L132,33 C131.448,33 131,32.552 131,32 L131,10 C131,9.448 131.448,9 132,9 L136,9 C136.552,9 137,9.448 137,10 L137,32 C137,32.552 136.552,33 136,33 Z M155,9.007 C162.346,9.017 165,13.002 165,18.545 L165,32.001 C165,32.553 164.553,33 164.001,33.001 L160.003,33.003 C159.449,33.004 159.001,32.555 159.002,32.001 L159.031,19 C159.031,14.083 155.159,14.008 154.992,14.008 C152.315,14.008 144.999,14.016 144.999,14.016 L145.028,31.969 C145.028,31.969 145.068,33.175 143.69,32.979 C142.712,32.982 141.175,32.987 140.197,32.991 C139.29,33.107 139,32.438 139,31.984 L139,9.004 C139,9.004 147.654,8.997 155,9.007 Z M100.003,41.986 C100.003,41.986 99,41.986 99,40.986 L99,13.971 C99,13.971 98.998,9 103.988,9 C108.016,9 108.275,9.021 117.792,9.012 C127.308,9.002 128.99,17.105 129,20.972 C129.009,24.84 127.352,32.99 117.941,32.986 C113.56,32.985 109.2,32.987 104.99,32.986 C104.99,32.986 104.986,40.873 104.986,40.955 C104.986,41.986 103.987,41.986 103.987,41.986 C103.559,41.985 100.432,41.985 100.003,41.986 Z M105.001,14.962 C105.001,15.849 105.006,27.953 105.006,27.953 C105.006,27.953 112.951,27.963 115.732,27.963 C118.515,27.963 122.973,27.105 122.97,20.908 C122.968,14.712 118.957,13.994 115.685,13.984 C112.414,13.974 107.091,13.986 106.001,13.986 C104.986,13.986 105.001,14.962 105.001,14.962 Z M94.984,33 L73.031,32.968 C73.031,32.968 66.021,33 66.021,25.992 C66.021,21.046 66.019,19.702 66.019,15.943 C66.019,15.943 65.5,9 73.16,9 L90.016,9 C97.542,9 97,16.036 97,16.036 L97,20 C97,20 97.562,24 92.008,24 L72,24 C72.001,24 71.974,25.907 72,26.034 C72,26.034 71.969,27.984 73.984,27.984 C75.255,27.984 95,28 95,28 C95,28 96.015,28.016 96.015,29.016 C96.015,29.365 96.02,31.637 96.021,31.984 C96.022,32.077 96.016,33 94.984,33 Z M90.017,19.014 C90.984,19.014 90.984,18.016 90.984,18.016 C90.984,17.272 90.996,16.795 91,16.016 C91.005,15.031 89.953,14.016 89.047,14.016 C88.041,14.016 74.987,14.012 74.016,14.016 C72.969,14.019 72.004,15.016 72.004,16.031 C72.004,16.426 72,19.016 72,19.016 C72,19.016 89.378,19.014 90.017,19.014 Z" id="Fill-1"></path>
        </g>
    </g>
</svg>