<svg height="32" width="119" xmlns="http://www.w3.org/2000/svg"><g fill="none" fill-rule="evenodd"><path d="M11.592 15.324h4.872v-8.68h-4.872zm10.976 0l1.68-2.576s1.96 1.792 3.024 2.94c-.084.308-.364.448-.756.448h-6.552v12.208c0 .224-1.064.98-2.856.98h-.644V16.136h-4.9c-.168 5.292-1.652 10.416-10.444 13.3l-.224-.252c5.796-3.528 7.056-7.896 7.196-13.048H1.204l-.224-.812h7.14v-8.68H2.38l-.252-.812H21.28l1.68-2.184s1.904 1.512 3.052 2.548c-.084.308-.392.448-.784.448h-5.264v8.68zm7.868-11.648l.224-.168c7.588.728 4.984 6.272 2.072 4.284-.308-1.484-1.372-3.08-2.296-4.116zM28.672 10.2l.224-.196c7.196.532 4.676 5.796 1.876 3.892-.252-1.316-1.232-2.8-2.1-3.696zm7.7-2.464l.42.14c-.924 3.5-2.52 9.996-2.828 11.564-.224.98-.364 1.988-.336 2.66.056 1.54 1.176 2.576 1.064 5.068-.056 1.4-.924 2.352-2.24 2.352-.644 0-1.288-.392-1.484-1.484.504-2.884.392-5.572-.252-5.992-.392-.28-.84-.392-1.428-.448v-.56h1.232c.392 0 .504 0 .784-.588.532-1.064.532-1.064 5.068-12.712zm5.712 12.516l3.5 1.624c-.112.308-.364.448-1.008.392-1.26 1.96-3.332 4.368-5.88 5.852l-.28-.308c1.736-2.1 3.108-5.376 3.668-7.56zm7.476.672l.308-.168c7.616 2.912 5.236 8.372 2.548 6.244-.336-2.016-1.708-4.452-2.856-6.076zm1.036-10.22h-6.132v3.276h6.132zm-6.132 7.168h6.132v-3.08h-6.132zm5.992-12.18l1.708-2.268s1.96 1.54 3.108 2.604c-.056.308-.364.448-.756.448H46.9l2.884.672c-.112.364-.448.616-1.036.644-.672.728-1.484 1.512-2.296 2.1h3.892l1.372-1.456L54.6 10.62c-.14.196-.504.392-1.008.504v7.84c-.028.196-1.512.756-2.492.756h-.504v-1.036H49.14V25.6c0 2.128-.504 3.612-3.808 3.892-.028-1.008-.168-1.764-.504-2.24-.308-.476-.868-.812-2.072-1.036v-.364s2.296.14 2.8.14c.392 0 .504-.168.504-.476v-6.832h-1.596v.42c0 .252-1.232.924-2.464.924h-.42V8.66l3.024 1.232h.756c.14-.924.252-2.184.308-3.416h-5.516v5.908c0 5.124-.252 12.32-5.404 17.024l-.336-.196c2.464-5.04 2.66-11.34 2.66-16.828V4.376l3.556 1.316z" fill="#000"/><rect fill="#00b156" height="32" rx="2" width="61" x="58"/><path d="M74.276 14.712l-.338-.208C75.134 11.826 76.122 7.822 76.46 4l4.03 1.014c-.104.338-.416.572-1.014.598a26.475 26.475 0 0 1-1.43 3.822h6.006l1.586-1.56 2.704 2.6c-.208.208-.442.286-.988.312-1.014 1.144-2.782 2.756-4.108 3.692l-.26-.156c.416-1.118.91-2.834 1.222-4.134h-6.526c-.962 1.82-2.08 3.328-3.406 4.524zm1.352 4.862l.052.286a71.617 71.617 0 0 1-3.9 1.898v5.72c-.026.182-.884.754-2.366.754h-.52v-5.2c-.936.39-1.924.78-3.016 1.222-.13.338-.364.572-.65.65l-1.664-3.406c1.118-.13 3.016-.416 5.33-.806v-4.108h-1.898l-1.066 1.274-2.73-1.794c.26-.208.676-.416 1.04-.598.546-1.482 1.17-3.614 1.716-5.694h-2.132l-.208-.728h2.522c.546-1.976.962-3.822 1.17-4.992l3.692.91c-.13.338-.39.624-1.066.572-.234.91-.546 2.158-.936 3.51h2.574l1.404-1.742s1.638 1.196 2.6 2.054c-.078.286-.338.416-.676.416h-6.084a270.424 270.424 0 0 1-1.768 6.058h2.132v-4.732l3.536.364c-.078.338-.286.624-.962.728v3.64h.286l1.222-1.56s1.404 1.092 2.236 1.898c-.078.286-.338.416-.65.416H71.78v3.64c1.248-.208 2.548-.416 3.848-.65zm5.798-7.02l-.026.598c.468 5.59 2.158 9.386 6.552 11.57l-.026.312c-1.456.364-2.314 1.378-2.574 3.224-2.782-2.262-3.796-6.812-4.212-12.064-.572 4.706-2.132 8.996-8.424 12.22l-.312-.416c5.72-4.758 6.084-10.374 6.214-16.9l3.848.832c-.104.364-.39.624-1.04.624zM94.79 11.15l1.56.572c-.078.234-.286.416-.78.52v15.236c-.052.208-1.3.858-2.522.858h-.546v-13.91a21.024 21.024 0 0 1-3.042 3.042l-.312-.208c2.002-3.224 4.03-8.32 5.018-13.26l4.082 1.482c-.104.312-.442.52-1.04.494-.702 1.872-1.508 3.614-2.418 5.174zm14.664 6.396l1.664-2.236s1.898 1.508 3.016 2.574c-.078.286-.364.416-.728.416h-6.656v9.152c0 .312-1.326.91-2.496.91h-.65V18.3H96.61l-.208-.754h7.202v-6.318h-3.224c-1.014 2.054-2.262 3.796-3.718 5.174l-.312-.182c1.17-2.756 2.21-6.916 2.652-10.816l4.03 1.222c-.104.338-.442.546-1.014.546a29.05 29.05 0 0 1-1.274 3.302h2.86V4.312l4.134.39c-.078.364-.26.65-.988.754v5.018h2.132l1.612-2.132s1.794 1.482 2.886 2.47c-.078.286-.364.416-.728.416h-5.902v6.318z" fill="#fff"/></g></svg>