<?xml version="1.0" encoding="utf-8"?>
<!-- Generator: Adobe Illustrator 15.0.0, SVG Export Plug-In . SVG Version: 6.00 Build 0)  -->
<!DOCTYPE svg PUBLIC "-//W3C//DTD SVG 1.1//EN" "http://www.w3.org/Graphics/SVG/1.1/DTD/svg11.dtd">
<svg version="1.1" id="图层_1" xmlns="http://www.w3.org/2000/svg" xmlns:xlink="http://www.w3.org/1999/xlink" x="0px" y="0px"
	 width="200px" height="200px" viewBox="0 0 200 200" enable-background="new 0 0 200 200" xml:space="preserve">
<path fill="#CF893D" d="M107.761,6.678l71.636,39.669c4.981,2.775,8.085,8.014,8.124,13.715v78.811
	c-0.039,5.702-3.143,10.941-8.124,13.714l-71.742,39.881c-4.825,2.666-10.682,2.666-15.508,0L20.51,152.694
	c-4.981-2.775-8.084-8.015-8.124-13.717V60.062c0.04-5.701,3.143-10.94,8.124-13.715l71.742-39.88
	c4.826-2.666,10.683-2.666,15.509,0V6.678z"/>
<path fill="#FFD255" d="M100.691,19.022c-0.421-0.317-1.055-0.317-1.476,0L27.473,58.796c-0.422,0.317-0.739,0.844-0.739,1.372
	v78.706c0,0.527,0.317,1.055,0.739,1.372l71.742,39.773c0.421,0.316,1.055,0.316,1.476,0l71.742-39.773
	c0.422-0.317,0.738-0.845,0.738-1.372V60.167c0-0.527-0.316-1.055-0.738-1.372L100.691,19.022z M107.761,6.572l71.636,39.774
	c4.981,2.775,8.085,8.014,8.124,13.715v78.811c-0.039,5.702-3.143,10.941-8.124,13.714l-71.742,39.881
	c-4.825,2.666-10.682,2.666-15.508,0L20.51,152.694c-4.981-2.775-8.084-8.015-8.124-13.717V60.062
	c0.04-5.701,3.143-10.94,8.124-13.715l71.742-39.88c4.826-2.666,10.683-2.666,15.509,0V6.572z"/>
<path fill="#FFFFFF" d="M110.293,69.241c-1.056,1.688-2.848,4.537-4.959,8.44H85.078v-6.33c0-3.497,2.834-6.33,6.33-6.33h12.766
	C106.911,64.956,109.381,66.659,110.293,69.241z"/>
<path fill="#FFFFFF" d="M107.022,74.516l-1.688,3.165H86.871c-0.844,0-2.427,0.739-3.165,1.372L68.936,94.456
	c-0.633,0.633-1.372,2.321-1.372,3.271v11.5c0,0.422,0.528,1.16,1.056,1.372l14.242,5.38c1.266,0.528,3.693,1.055,5.064,1.055
	h20.046c1.729-0.105,3.436-0.461,5.064-1.055l14.243-5.38c0.422-0.212,1.055-1.056,1.055-1.372v-11.5
	c0-0.949-0.738-2.637-1.372-3.165l-11.5-11.921c0.423-0.422,1.371-1.372,2.427-2.111l11.185,11.605
	c1.33,1.53,2.11,3.461,2.215,5.486v11.5c0,1.793-1.267,3.693-2.954,4.325l-14.243,5.486c-1.688,0.633-4.431,1.056-6.33,1.056H87.715
	c-1.688,0-4.537-0.423-6.12-1.056l-14.348-5.38c-1.712-0.781-2.849-2.447-2.954-4.326v-11.5c0-1.793,1.055-4.22,2.215-5.486
	L81.49,76.837c1.474-1.369,3.374-2.188,5.381-2.321H107.022z"/>
<path fill="#FFFFFF" d="M74.633,90.869c-2.321,2.11-5.697,4.853-5.697,7.385v9.285c0,1.792,1.372,3.798,3.06,4.431l11.5,4.325
	c1.583,0.633,4.431,1.161,6.119,1.161h16.459c1.793,0,4.535-0.528,6.225-1.056l11.499-4.431c1.745-0.798,2.889-2.514,2.953-4.431
	v-8.968c0-1.055-0.421-2.11-1.054-2.954l-14.138-14.771c-0.812-0.887-1.962-1.386-3.165-1.372H87.926
	c-1.055,0-2.11,0.422-2.954,1.161L74.633,90.869z"/>
<path fill="#FFFFFF" d="M102.802,100.786h-4.958c6.49-18.566,17.472-35.239,31.968-48.531c2.954-2.743,7.173-4.854,10.55-5.697
	c14.559-3.376,24.054-3.06,33.549-2.849c-1.898,2.111-3.797,4.22-6.013,6.331c-0.423,0.316-18.041,2.743-19.729,4.748
	c-1.689,2.11,13.609,0.739,13.081,1.055c-2.375,1.942-4.84,3.773-7.386,5.486c-0.421,0.316-16.563,1.055-18.251,2.849
	c-1.688,1.583,10.656,1.794,10.128,2.11c-7.068,3.798-15.403,6.857-24.687,9.39c-6.12,1.688-11.185,7.596-15.403,17.619l-2.85,7.386
	V100.786z M79.803,62.383c-2.321-0.105-4.115-1.372-4.009-3.693c0.105-2.215,2.004-3.165,4.22-3.059
	c1.477,0.105,4.431,1.372,8.757,3.798C84.233,61.539,81.385,62.594,79.803,62.383z M64.083,78.736
	c-3.481,2.743-7.913,3.165-10.972-0.422c-3.06-3.481-1.688-7.385,1.899-10.128c5.678-2.904,11.819-4.797,18.146-5.592
	C71.302,68.554,68.21,74.055,64.083,78.736z"/>
<path fill="#FFFFFF" d="M129.073,78.42c-1.268-0.317-3.8,0.105-7.702,1.266c1.827,1.816,3.973,3.282,6.33,4.326
	c1.688,0.527,3.375,0,3.797-2.004C132.026,80.213,130.76,78.842,129.073,78.42z"/>
<path fill="#F1B613" d="M26.368,118.605c44.003-16.965,93.095-16.965,147.171,0.213v20.252c0,0.53-0.318,1.061-0.742,1.379
	l-72.102,39.973c-0.424,0.318-1.06,0.318-1.484,0L27.11,140.449c-0.424-0.318-0.742-0.849-0.742-1.379V118.605z M100.166,194.949
	l-0.848,0.424l-1.061-0.53L100.166,194.949z M18.945,152.218l-0.636-0.317v-0.106L18.945,152.218z"/>
<path fill="#FFFFFF" d="M81.61,154.445h-0.636v-0.318l-0.106-0.424c-0.1-0.135-0.257-0.213-0.424-0.213h-2.121l-1.591,9.543
	c0,0.212,0,0.318,0.212,0.424l0.318,0.106h0.424l-0.106,0.636h-5.407v-0.636h0.424l0.424-0.106l0.318-0.424l1.485-9.543h-2.121
	c-0.212,0-0.318,0-0.53,0.213l-0.212,0.424v0.318h-0.743l0.318-2.121h10.391l-0.424,2.121H81.61z M86.912,164.199h-5.408v-0.636
	h0.424l0.53-0.106l0.212-0.424l1.59-9.543c0-0.212,0-0.318-0.212-0.424c-0.12-0.095-0.274-0.133-0.424-0.105h-0.318v-0.637h5.514
	v0.637h-0.53l-0.53,0.105l-0.212,0.424l-1.59,9.543c0,0.212,0,0.318,0.212,0.424l0.424,0.106h0.318l-0.106,0.636H86.912z
	 M105.997,164.199h-4.347l1.484-9.118c0.012-0.142,0.012-0.283,0-0.425c0-0.529,0-0.848-0.318-1.06
	c-0.142-0.292-0.421-0.491-0.742-0.53c-0.193,0.021-0.377,0.094-0.53,0.212c-0.212,0-0.317,0.212-0.53,0.318
	c-0.273,0.296-0.457,0.663-0.53,1.06l-1.272,8.377l0.106,0.424l0.424,0.106h0.318v0.636h-5.514v-0.636h0.424l0.53-0.106l0.212-0.424
	l1.378-8.377c0-0.529,0-0.848-0.318-1.06c-0.142-0.292-0.421-0.491-0.742-0.53c-0.229,0-0.453,0.074-0.636,0.212l-0.424,0.425
	l-0.424,0.636l-0.212,0.742l-1.484,9.118h-4.347v-0.636h0.424l0.53-0.106l0.212-0.424l1.59-9.543l-0.212-0.424
	c-0.12-0.095-0.274-0.133-0.424-0.105h-0.212v-0.637h11.664c1.074,0.008,2.143,0.15,3.181,0.424l1.061,0.637l0.317,0.636v0.212
	l-1.378,8.906l0.106,0.425l0.424,0.106h0.318v0.636L105.997,164.199z M117.873,162.079l-0.318,2.12h-10.497l0.106-0.636h0.318
	l0.529-0.106l0.318-0.424l1.484-9.543c0-0.212,0-0.318-0.213-0.424c-0.119-0.095-0.273-0.133-0.424-0.105h-0.318l0.107-0.637h10.496
	l-0.318,2.121h-0.636v-0.318c0-0.213,0-0.318-0.212-0.424c-0.082-0.102-0.193-0.176-0.318-0.213h-4.771l-0.636,3.711l-0.318,2.227
	l-0.636,3.605h4.771c0.212,0,0.318,0,0.529-0.212l0.318-0.425v-0.317H117.873z M129.219,162.396c0,0.318-0.213,0.531-0.531,0.849
	l-1.061,0.53l-1.59,0.424c-1.7,0.251-3.434,0.143-5.09-0.318l-0.848-0.529c-0.24-0.178-0.394-0.446-0.424-0.742v-0.213l0.211-1.06
	h3.394v0.849c0,0.424,0,0.742,0.212,1.06c0.213,0.212,0.424,0.318,0.742,0.318l0.53-0.106l0.53-0.424l0.424-0.637l0.213-0.848
	l0.424-2.121c-0.554-0.236-1.086-0.52-1.591-0.848c-0.669-0.425-1.38-0.779-2.12-1.061h-1.061l-1.061-0.105l0.637-3.287
	c0-0.318,0.105-0.53,0.424-0.849l1.061-0.53l1.59-0.424c1.7-0.251,3.434-0.143,5.09,0.318l0.954,0.529
	c0.212,0.213,0.318,0.531,0.318,0.742v0.106l-0.212,1.061h-3.393l0.105-0.636c0-0.425,0-0.849-0.318-1.061
	c-0.177-0.24-0.446-0.394-0.742-0.424c-0.424,0-0.742,0.211-1.061,0.529c-0.336,0.432-0.555,0.943-0.636,1.484l-0.318,2.121
	c0.454,0.326,0.913,0.645,1.378,0.954c1.328,0.736,2.83,1.103,4.348,1.061L129.219,162.396z"/>
<path fill="#FFFFFF" d="M111.404,158.898h5.514l-0.318,1.061h-5.301L111.404,158.898z M111.404,156.777h6.045l-0.318,1.061h-5.727
	V156.777z"/>
<path fill="#FFFFFF" d="M113.42,142.569c-0.247,0.947-0.721,1.82-1.379,2.544c-0.848,0.742-1.908,1.379-3.182,1.909
	c-3.246,1.097-6.646,1.67-10.072,1.696H82.988l0.106-1.061c0.106-0.424,0.636-0.848,1.061-0.848c0.56-0.008,1.093-0.236,1.484-0.637
	c0.424-0.318,0.636-0.742,0.742-1.271l1.803-12.406c4.541-0.039,8.995-1.244,12.935-3.499c0.908-0.548,1.828-1.079,2.758-1.591
	c1.424-0.797,2.401-2.204,2.65-3.816l0.742-4.453l0.105-1.697c0-1.59-0.317-2.756-0.848-3.604c-0.637-0.849-1.379-1.272-2.332-1.272
	c-1.061,0-2.016,0.636-2.863,1.803c-0.848,1.166-1.485,2.969-1.909,5.301H89.88l0.636-3.393c0.147-0.983,0.635-1.885,1.378-2.545
	c0.742-0.742,1.803-1.379,3.075-1.908c1.272-0.53,2.757-1.061,4.453-1.272c3.37-0.56,6.809-0.56,10.178,0
	c1.592,0.212,2.863,0.636,4.029,1.06c1.061,0.531,2.016,1.061,2.651,1.803c0.644,0.682,0.954,1.613,0.849,2.545v0.318l-1.484,10.604
	c-3.816-0.027-7.576,0.921-10.922,2.756c-1.777,0.9-3.545,1.818-5.301,2.758c-1.172,0.663-1.959,1.844-2.121,3.181l-0.636,4.241
	l-0.106,1.59c0,3.182,1.06,4.878,2.969,4.878c0.53,0,1.061-0.212,1.59-0.636c0.531-0.318,1.061-0.849,1.484-1.379
	c0.926-1.36,1.508-2.925,1.697-4.56h9.543L113.42,142.569z"/>
</svg>
