<svg height="90" viewBox="0 0 306 90" width="306" xmlns="http://www.w3.org/2000/svg"><g fill="none" fill-rule="evenodd" transform="translate(0 -1)"><path d="m86 37-46 .0010476c-2.2087299 0-3.9994215 1.7902227-3.9999999 3.9989525l-.004747 9.9999998c-.0005785 2.2091389 1.7898135 4.0004688 3.9989524 4.0010473.0003603.0000001.0007205.0000001.0010808.0000001l28.0047137-.0013473c2.209139-.0000184 4.0000149 1.7908277 4.0000333 3.9999667v.0000333l-.0000333 1v1.0003c0 6.627417-5.372583 12-12 12l-38.0029771-.0001103c-2.2088219 0-3.9994429-1.7905716-3.9995038-3.9993935l-.0014885-38.0004962c-.0001827-6.627417 5.3722522-12.0001481 11.9996692-12.0003308h.0003308l55.9928054-.0021509c2.2081702 0 3.9986296-1.7893493 3.9999992-3.9975191l.011164-9.99999843c.0013702-2.20913858-1.7883797-4.00110997-3.9975183-4.00248013-.000827-.00000051-.0016539-.00000077-.0024809-.00000077l-56 .00264552c-16.5684779 0-29.99990866 13.43135671-30 29.99983461l-.00049618 56.0000221c-.00001218 2.209139 1.79083895 4.0000098 3.99997795 4.000022h.00002205l59.00048518-.000022c14.9116943 0 27.000011-12.0883167 27.000011-27.0000111v-23.000011c0-2.209139-1.790861-4-4-4z" fill="#c71d23"/><path d="m138.000139 19c-1.10457 0-2-.8954305-2-2v-10c0-1.1045695.89543-2 2-2h46.00024c1.10457 0 2 .8954305 2 2v10c0 1.1045695-.89543 2-2 2h-15.000079c-.552284 0-1 .4477153-1 1v65c0 1.1045695-.89543 2-2 2h-10.000078c-1.10457 0-2-.8954305-2-2v-65c0-.5522847-.447715-1-1-1zm-28.000139 68c-1.104569 0-2-.8954305-2-2v-78c0-1.1045695.895431-2 2-2h10.000074c1.104569 0 2 .8954305 2 2v78c0 1.1045695-.895431 2-2 2zm104.000074-49c0 .5522847.447715 1 1 1h20.999102c.148 0 .295001.016.439002.049 1.077005.242 1.755008 1.312 1.512007 2.39l-3.148015 10c-.205001.912-1.016005 1.561-1.951009 1.561h-17.851087c-.552285 0-1 .4477153-1 1v18c0 .5522847.447715 1 1 1h28.999139c.147 0 .294001.016.438002.049 1.078005.242 1.755008 1.311 1.513007 2.389l-3.143015 10c-.205001.913-1.016005 1.562-1.951009 1.562h-30.856152-8.000037c-1.105005 0-2.000009-.895-2.000009-2v-78c0-1.105.895004-2 2.000009-2h8.000037 33.999167c.147 0 .294001.016.438002.049 1.078005.242 1.755008 1.311 1.513007 2.389l-3.143015 10c-.205001.913-1.016005 1.562-1.951009 1.562h-25.856124c-.552285 0-1 .4477153-1 1zm60 0c0 .5522847.447715 1 1 1h20.999102c.148 0 .295001.016.439002.049 1.077005.242 1.755008 1.312 1.512007 2.39l-3.148015 10c-.205001.912-1.016005 1.561-1.951009 1.561h-17.851087c-.552285 0-1 .4477153-1 1v18c0 .5522847.447715 1 1 1h28.999139c.147 0 .294001.016.438002.049 1.078005.242 1.755008 1.311 1.513007 2.389l-3.143015 10c-.205001.913-1.016005 1.562-1.951009 1.562h-30.856152-8.000037c-1.105005 0-2.000009-.895-2.000009-2v-78c0-1.105.895004-2 2.000009-2h8.000037 33.999167c.147 0 .294001.016.438002.049 1.078005.242 1.755008 1.311 1.513007 2.389l-3.143015 10c-.205001.913-1.016005 1.562-1.951009 1.562h-25.856124c-.552285 0-1 .4477153-1 1z" fill="#2d3131"/></g></svg>