<?xml version="1.0" encoding="UTF-8"?>
<svg width="306px" height="90px" viewBox="0 0 306 90" version="1.1" xmlns="http://www.w3.org/2000/svg" xmlns:xlink="http://www.w3.org/1999/xlink">
    <!-- Generator: Sketch 47.1 (45422) - http://www.bohemiancoding.com/sketch -->
    <title>logo_en</title>
    <desc>Created with Sketch.</desc>
    <defs></defs>
    <g id="Page-1" stroke="none" stroke-width="1" fill="none" fill-rule="evenodd">
        <g id="logo-copy-2" transform="translate(-163.000000, -272.000000)">
            <g id="logo_en" transform="translate(163.000000, 271.000000)">
                <path d="M86,37 L40,37 L40,37.0010476 C37.7912701,37.0010476 36.0005785,38.7912703 36.0000001,41.0000001 L35.9963338,51.0000001 L35.9952531,50.9999999 C35.9946746,53.2091388 37.7850666,55.0004687 39.9942055,55.0010472 C39.9945658,55.0010473 39.994926,55.0010473 39.9952863,55.0010473 L68,54.9997333 L68,54.9997 C70.209139,54.9996816 72.0000149,56.7905277 72.0000333,58.9996667 C72.0000333,58.9996778 72.0000333,58.9996889 72.0000333,58.9997 L72,59.9997 L72,61 L72,61 C72,67.627417 66.627417,73 60,73 L21.9970229,73 L21.9970229,72.9998897 C19.788201,72.9998897 17.99758,71.2093181 17.9975191,69.0004962 L17.9963613,31 L17.9960306,31 C17.9958479,24.372583 23.3682828,18.9998519 29.9956998,18.9996692 C29.99581,18.9996692 29.9959203,18.9996692 29.9960306,18.9996692 L85.988836,19 L85.988836,18.9975183 C88.1970062,18.9975183 89.9874656,17.208169 89.9888352,14.9999992 L89.9975191,4.99999923 L89.9999992,5.00000077 C90.0013694,2.79086219 88.2116195,0.998890802 86.0024809,0.997520639 C86.0016539,0.997520127 86.000827,0.99751987 86,0.99751987 L30,1 L30,1.00016539 C13.4315221,1.00016539 9.1344292e-05,14.4315221 4.58104665e-10,31 L-0.00047412742,87 L-0.000496179797,87 C-0.000508359022,89.209139 1.79034277,91.0000099 3.99948177,91.0000221 C3.99948912,91.0000221 3.99949647,91.0000221 3.99950382,91.0000221 L63,91 L63,91 C77.9116882,91 90,78.9116882 90,64 L90,41 L90,41 C90,38.790861 88.209139,37 86,37 Z" id="G" fill="#C71D23"></path>
                <path d="M138.000139,19 C136.895569,19 136.000139,18.1045695 136.000139,17 L136.000139,7 C136.000139,5.8954305 136.895569,5 138.000139,5 L184.000379,5 C185.104949,5 186.000379,5.8954305 186.000379,7 L186.000379,7 L186.000379,17 C186.000379,18.1045695 185.104949,19 184.000379,19 L184.000379,19 L169.0003,19 C168.448016,19 168.0003,19.4477153 168.0003,20 L168.0003,85 C168.0003,86.1045695 167.10487,87 166.0003,87 L156.000222,87 C154.895652,87 154.000222,86.1045695 154.000222,85 L154.000222,20 C154.000222,19.4477153 153.552507,19 153.000222,19 L138.000139,19 Z M110,87 C108.895431,87 108,86.1045695 108,85 L108,7 C108,5.8954305 108.895431,5 110,5 L110,5 L120.000074,5 C121.104643,5 122.000074,5.8954305 122.000074,7 L122.000074,7 L122.000074,85 C122.000074,86.1045695 121.104643,87 120.000074,87 L110,87 Z M214.000074,38 C214.000074,38.5522847 214.447789,39 215.000074,39 L235.999176,39 C236.147176,39 236.294177,39.016 236.438178,39.049 C237.515183,39.291 238.193186,40.361 237.950185,41.439 L234.80217,51.439 C234.597169,52.351 233.786165,53 232.851161,53 L215.000074,53 C214.447789,53 214.000074,53.4477153 214.000074,54 L214.000074,72 C214.000074,72.5522847 214.447789,73 215.000074,73 L243.999213,73 C244.146213,73 244.293214,73.016 244.437215,73.049 C245.51522,73.291 246.192223,74.36 245.950222,75.438 L242.807207,85.438 C242.602206,86.351 241.791202,87 240.856198,87 L210.000046,87 L202.000009,87 C200.895004,87 200,86.105 200,85 L200,7 C200,5.895 200.895004,5 202.000009,5 L210.000046,5 L243.999213,5 C244.146213,5 244.293214,5.016 244.437215,5.049 C245.51522,5.291 246.192223,6.36 245.950222,7.438 L242.807207,17.438 C242.602206,18.351 241.791202,19 240.856198,19 L215.000074,19 C214.447789,19 214.000074,19.4477153 214.000074,20 L214.000074,38 Z M274.000074,38 C274.000074,38.5522847 274.447789,39 275.000074,39 L295.999176,39 C296.147176,39 296.294177,39.016 296.438178,39.049 C297.515183,39.291 298.193186,40.361 297.950185,41.439 L294.80217,51.439 C294.597169,52.351 293.786165,53 292.851161,53 L275.000074,53 C274.447789,53 274.000074,53.4477153 274.000074,54 L274.000074,72 C274.000074,72.5522847 274.447789,73 275.000074,73 L303.999213,73 C304.146213,73 304.293214,73.016 304.437215,73.049 C305.51522,73.291 306.192223,74.36 305.950222,75.438 L302.807207,85.438 C302.602206,86.351 301.791202,87 300.856198,87 L270.000046,87 L262.000009,87 C260.895004,87 260,86.105 260,85 L260,7 C260,5.895 260.895004,5 262.000009,5 L270.000046,5 L303.999213,5 C304.146213,5 304.293214,5.016 304.437215,5.049 C305.51522,5.291 306.192223,6.36 305.950222,7.438 L302.807207,17.438 C302.602206,18.351 301.791202,19 300.856198,19 L275.000074,19 C274.447789,19 274.000074,19.4477153 274.000074,20 L274.000074,38 Z" id="Combined-Shape" fill="#FFFFFF"></path>
            </g>
        </g>
    </g>
</svg>